<svg xmlns="http://www.w3.org/2000/svg" viewBox="0 0 48 48" width="48" height="48"><rect width="48" height="48" rx="11" fill="#1f1f1e"/><g fill="#e4e6ea" transform="translate(9,7) scale(0.235)"><circle cx="51" cy="36" r="4"/><circle cx="65" cy="36" r="4"/><circle cx="79" cy="36" r="4"/><circle cx="44" cy="48" r="4"/><circle cx="58" cy="48" r="4"/><circle cx="72" cy="48" r="4"/><circle cx="86" cy="48" r="4"/><circle cx="37" cy="60" r="4"/><circle cx="51" cy="60" r="4"/><circle cx="65" cy="60" r="4"/><circle cx="79" cy="60" r="4"/><circle cx="93" cy="60" r="4"/><circle cx="44" cy="72" r="4"/><circle cx="58" cy="72" r="4"/><circle cx="72" cy="72" r="4"/><circle cx="86" cy="72" r="4"/><circle cx="51" cy="84" r="4"/><circle cx="65" cy="84" r="4"/><circle cx="79" cy="84" r="4"/></g></svg>