<svg viewBox="0 0 24 24" xmlns="http://www.w3.org/2000/svg" role="img"><title>Peacock</title><g><path d="M12 20 C9 15.5 9 10 12 5.5 C15 10 15 15.5 12 20 Z" fill="#6E3FA3" transform="rotate(-45 12 20)"/><path d="M12 20 C9 15.5 9 10 12 5.5 C15 10 15 15.5 12 20 Z" fill="#2E6FD6" transform="rotate(-27 12 20)"/><path d="M12 20 C9 15.5 9 10 12 5.5 C15 10 15 15.5 12 20 Z" fill="#18B86B" transform="rotate(-9 12 20)"/><path d="M12 20 C9 15.5 9 10 12 5.5 C15 10 15 15.5 12 20 Z" fill="#FFC400" transform="rotate(9 12 20)"/><path d="M12 20 C9 15.5 9 10 12 5.5 C15 10 15 15.5 12 20 Z" fill="#FF7A1A" transform="rotate(27 12 20)"/><path d="M12 20 C9 15.5 9 10 12 5.5 C15 10 15 15.5 12 20 Z" fill="#EE3B2F" transform="rotate(45 12 20)"/></g></svg>
