<svg xmlns="http://www.w3.org/2000/svg" width="340" height="340" viewBox="0 0 340 340">
<g fill="none" stroke="#ffffff" stroke-width="1.7" stroke-linecap="round" stroke-linejoin="round" color="#ffffff">
<g transform="translate(308.8,-15.3) rotate(2) scale(1.17)"><path d="M-9,-5 L-7,-13 L-2,-7 M9,-5 L7,-13 L2,-7 M-9,-5 a9,8 0 0 0 18,0"/><path d="M-2,2 H-7 M2,2 H7"/><circle cx="-4" cy="-2" r="1.1" fill="currentColor" stroke="none"/><circle cx="4" cy="-2" r="1.1" fill="currentColor" stroke="none"/></g><g transform="translate(308.8,324.7) rotate(2) scale(1.17)"><path d="M-9,-5 L-7,-13 L-2,-7 M9,-5 L7,-13 L2,-7 M-9,-5 a9,8 0 0 0 18,0"/><path d="M-2,2 H-7 M2,2 H7"/><circle cx="-4" cy="-2" r="1.1" fill="currentColor" stroke="none"/><circle cx="4" cy="-2" r="1.1" fill="currentColor" stroke="none"/></g><g transform="translate(32.5,-12.0) rotate(255) scale(0.77)"><path d="M-6,3 a6,7 0 1 1 12,0 q-2,3 -2,5 H-4 q0,-2 -2,-5 Z M-3,11 H3 M-2.5,13.5 H2.5"/></g><g transform="translate(32.5,328.0) rotate(255) scale(0.77)"><path d="M-6,3 a6,7 0 1 1 12,0 q-2,3 -2,5 H-4 q0,-2 -2,-5 Z M-3,11 H3 M-2.5,13.5 H2.5"/></g><g transform="translate(76.0,307.7) rotate(95) scale(0.75)"><path d="M-6,-11 V11 M-6,1 L7,-11 M-6,1 L7,11"/></g><g transform="translate(117.4,-12.8) rotate(232) scale(0.96)"><path d="M-13,0 q8,-9 18,0 q-10,9 -18,0 Z M5,-6 L13,-11 V11 L5,6"/><circle cx="-7" r="1" fill="currentColor" stroke="none"/></g><g transform="translate(117.4,327.2) rotate(232) scale(0.96)"><path d="M-13,0 q8,-9 18,0 q-10,9 -18,0 Z M5,-6 L13,-11 V11 L5,6"/><circle cx="-7" r="1" fill="currentColor" stroke="none"/></g><g transform="translate(147.4,-8.8) rotate(70) scale(1.01)"><path d="M-22,0 q4,-7 8,0 t8,0 t8,0 t8,0"/></g><g transform="translate(147.4,331.2) rotate(70) scale(1.01)"><path d="M-22,0 q4,-7 8,0 t8,0 t8,0 t8,0"/></g><g transform="translate(176.7,-12.4) rotate(243) scale(0.98)"><path d="M-12,-9 L13,0 L-12,9 L-6,0 Z"/></g><g transform="translate(176.7,327.6) rotate(243) scale(0.98)"><path d="M-12,-9 L13,0 L-12,9 L-6,0 Z"/></g><g transform="translate(245.7,-12.0) rotate(40) scale(0.89)"><path d="M0,-13 L3.8,-4 L13,-3.2 L6,3 L8,12 L0,7.2 L-8,12 L-6,3 L-13,-3.2 L-3.8,-4 Z"/></g><g transform="translate(245.7,328.0) rotate(40) scale(0.89)"><path d="M0,-13 L3.8,-4 L13,-3.2 L6,3 L8,12 L0,7.2 L-8,12 L-6,3 L-13,-3.2 L-3.8,-4 Z"/></g><g transform="translate(288.2,302.8) rotate(43) scale(0.96)"><circle r="8"/><ellipse rx="15" ry="5" transform="rotate(-20)"/></g><g transform="translate(9.4,-14.0) rotate(176) scale(1.13)"><path d="M-12,-9 L13,0 L-12,9 L-6,0 Z"/></g><g transform="translate(9.4,326.0) rotate(176) scale(1.13)"><path d="M-12,-9 L13,0 L-12,9 L-6,0 Z"/></g><g transform="translate(349.4,-14.0) rotate(176) scale(1.13)"><path d="M-12,-9 L13,0 L-12,9 L-6,0 Z"/></g><g transform="translate(349.4,326.0) rotate(176) scale(1.13)"><path d="M-12,-9 L13,0 L-12,9 L-6,0 Z"/></g><g transform="translate(46.2,302.0) rotate(272) scale(0.96)"><path d="M0,-13 L3.8,-4 L13,-3.2 L6,3 L8,12 L0,7.2 L-8,12 L-6,3 L-13,-3.2 L-3.8,-4 Z"/></g><g transform="translate(311.6,14.0) rotate(150) scale(1.03)"><path d="M-11,-4 H11 L0,12 Z M-11,-4 L-6,-10 H6 L11,-4 M-6,-10 L0,-4 L6,-10 M-11,-4 L0,-4 L11,-4 M0,-4 V12"/></g><g transform="translate(311.6,354.0) rotate(150) scale(1.03)"><path d="M-11,-4 H11 L0,12 Z M-11,-4 L-6,-10 H6 L11,-4 M-6,-10 L0,-4 L6,-10 M-11,-4 L0,-4 L11,-4 M0,-4 V12"/></g><g transform="translate(32.5,17.9) rotate(193) scale(1.07)"><path d="M6,-11 a12,12 0 1 0 5,20 a9,9 0 1 1 -5,-20 Z"/></g><g transform="translate(32.5,357.9) rotate(193) scale(1.07)"><path d="M6,-11 a12,12 0 1 0 5,20 a9,9 0 1 1 -5,-20 Z"/></g><g transform="translate(84.3,31.8) rotate(188) scale(0.92)"><path d="M0,-13 V13 M-11,-6.5 L11,6.5 M-11,6.5 L11,-6.5 M0,-9 L-3,-12 M0,-9 L3,-12 M0,9 L-3,12 M0,9 L3,12"/></g><g transform="translate(120.4,30.8) rotate(178) scale(1.07)"><path d="M-6,3 a6,7 0 1 1 12,0 q-2,3 -2,5 H-4 q0,-2 -2,-5 Z M-3,11 H3 M-2.5,13.5 H2.5"/></g><g transform="translate(176.2,24.6) rotate(251) scale(1.20)"><path d="M-10,10 C-10,-6 4,-10 10,-10 C10,6 -4,10 -10,10 Z M-6,6 L6,-6"/></g><g transform="translate(176.2,364.6) rotate(251) scale(1.20)"><path d="M-10,10 C-10,-6 4,-10 10,-10 C10,6 -4,10 -10,10 Z M-6,6 L6,-6"/></g><g transform="translate(229.7,17.9) rotate(214) scale(1.04)"><path d="M-11,-4 H11 L0,12 Z M-11,-4 L-6,-10 H6 L11,-4 M-6,-10 L0,-4 L6,-10 M-11,-4 L0,-4 L11,-4 M0,-4 V12"/></g><g transform="translate(229.7,357.9) rotate(214) scale(1.04)"><path d="M-11,-4 H11 L0,12 Z M-11,-4 L-6,-10 H6 L11,-4 M-6,-10 L0,-4 L6,-10 M-11,-4 L0,-4 L11,-4 M0,-4 V12"/></g><g transform="translate(283.2,24.7) rotate(3) scale(1.12)"><path d="M-6,-11 V11 M-6,1 L7,-11 M-6,1 L7,11"/></g><g transform="translate(283.2,364.7) rotate(3) scale(1.12)"><path d="M-6,-11 V11 M-6,1 L7,-11 M-6,1 L7,11"/></g><g transform="translate(-5.7,13.9) rotate(57) scale(1.08)"><path d="M-10,10 C-10,-6 4,-10 10,-10 C10,6 -4,10 -10,10 Z M-6,6 L6,-6"/></g><g transform="translate(-5.7,353.9) rotate(57) scale(1.08)"><path d="M-10,10 C-10,-6 4,-10 10,-10 C10,6 -4,10 -10,10 Z M-6,6 L6,-6"/></g><g transform="translate(334.3,13.9) rotate(57) scale(1.08)"><path d="M-10,10 C-10,-6 4,-10 10,-10 C10,6 -4,10 -10,10 Z M-6,6 L6,-6"/></g><g transform="translate(334.3,353.9) rotate(57) scale(1.08)"><path d="M-10,10 C-10,-6 4,-10 10,-10 C10,6 -4,10 -10,10 Z M-6,6 L6,-6"/></g><g transform="translate(59.2,15.1) rotate(281) scale(0.97)"><path d="M-12,-9 L13,0 L-12,9 L-6,0 Z"/></g><g transform="translate(59.2,355.1) rotate(281) scale(0.97)"><path d="M-12,-9 L13,0 L-12,9 L-6,0 Z"/></g><g transform="translate(313.9,66.8) rotate(239) scale(0.89)"><rect x="-8" y="-1" width="16" height="13" rx="2.5"/><path d="M-5,-1 V-5 a5,5 0 0 1 10,0 V-1"/></g><g transform="translate(13.6,89.7) rotate(209) scale(0.75)"><path d="M-8,-3 H8 V6 a4,4 0 0 1 -4,4 H-4 a4,4 0 0 1 -4,-4 Z M8,-1 a4,4 0 0 1 0,8"/><path d="M-3,-9 q2,2 0,4 M3,-9 q2,2 0,4"/></g><g transform="translate(353.6,89.7) rotate(209) scale(0.75)"><path d="M-8,-3 H8 V6 a4,4 0 0 1 -4,4 H-4 a4,4 0 0 1 -4,-4 Z M8,-1 a4,4 0 0 1 0,8"/><path d="M-3,-9 q2,2 0,4 M3,-9 q2,2 0,4"/></g><g transform="translate(81.6,89.7) rotate(301) scale(1.09)"><path d="M-6,-11 V11 M-6,1 L7,-11 M-6,1 L7,11"/></g><g transform="translate(135.8,91.4) rotate(174) scale(1.05)"><path d="M-13,-2 q6,-7 13,0 q7,-7 13,0 M0,3 q0,7 -4,9 M0,3 q0,7 4,9"/></g><g transform="translate(173.1,69.1) rotate(326) scale(0.75)"><path d="M-10,10 C-10,-6 4,-10 10,-10 C10,6 -4,10 -10,10 Z M-6,6 L6,-6"/></g><g transform="translate(236.2,71.1) rotate(190) scale(0.74)"><circle cx="-7" cy="0" r="5.5"/><circle cx="7" cy="0" r="5.5"/><path d="M-1.5,0 H1.5 M-12.5,-1 L-15,-4 M12.5,-1 L15,-4"/></g><g transform="translate(285.4,83.2) rotate(284) scale(0.83)"><path d="M-13,-2 q6,-7 13,0 q7,-7 13,0 M0,3 q0,7 -4,9 M0,3 q0,7 4,9"/></g><g transform="translate(0.8,78.8) rotate(254) scale(0.95)"><path d="M-8,7 a8,10 0 0 1 16,0 Z M0,-5 V-9 M-3,9 a3,3 0 0 0 6,0"/></g><g transform="translate(340.8,78.8) rotate(254) scale(0.95)"><path d="M-8,7 a8,10 0 0 1 16,0 Z M0,-5 V-9 M-3,9 a3,3 0 0 0 6,0"/></g><g transform="translate(51.7,73.0) rotate(21) scale(0.96)"><path d="M-6,-11 V11 M-6,1 L7,-11 M-6,1 L7,11"/></g><g transform="translate(81.7,75.4) rotate(160) scale(0.96)"><path d="M-22,0 q4,-7 8,0 t8,0 t8,0 t8,0"/></g><g transform="translate(-25.4,135.4) rotate(88) scale(1.16)"><path d="M0,-13 C6,-7 6,2 4,7 H-4 C-6,2 -6,-7 0,-13 Z M-4,7 L-8,12 L-3,9 M4,7 L8,12 L3,9 M0,11 V14"/><circle cy="-3" r="2"/></g><g transform="translate(314.6,135.4) rotate(88) scale(1.16)"><path d="M0,-13 C6,-7 6,2 4,7 H-4 C-6,2 -6,-7 0,-13 Z M-4,7 L-8,12 L-3,9 M4,7 L8,12 L3,9 M0,11 V14"/><circle cy="-3" r="2"/></g><g transform="translate(4.6,139.8) rotate(103) scale(0.67)"><path d="M-22,0 q4,-7 8,0 t8,0 t8,0 t8,0"/></g><g transform="translate(344.6,139.8) rotate(103) scale(0.67)"><path d="M-22,0 q4,-7 8,0 t8,0 t8,0 t8,0"/></g><g transform="translate(37.8,137.6) rotate(133) scale(0.93)"><path d="M-8,-3 H8 V6 a4,4 0 0 1 -4,4 H-4 a4,4 0 0 1 -4,-4 Z M8,-1 a4,4 0 0 1 0,8"/><path d="M-3,-9 q2,2 0,4 M3,-9 q2,2 0,4"/></g><g transform="translate(67.8,146.6) rotate(188) scale(0.93)"><path d="M-22,0 q4,-7 8,0 t8,0 t8,0 t8,0"/></g><g transform="translate(79.6,136.3) rotate(142) scale(0.81)"><path d="M-12,-9 L13,0 L-12,9 L-6,0 Z"/></g><g transform="translate(143.8,126.4) rotate(177) scale(0.84)"><path d="M-12,-7 V7 M12,-7 V7 M-12,-7 H-9 M-12,7 H-9 M12,-7 H9 M12,7 H9"/><circle cx="-5" r="1.6" fill="currentColor" stroke="none"/><circle cx="0" r="1.6" fill="currentColor" stroke="none"/><circle cx="5" r="1.6" fill="currentColor" stroke="none"/></g><g transform="translate(174.6,118.9) rotate(267) scale(0.73)"><rect x="-13" y="-6" width="26" height="13" rx="6.5"/><path d="M-7,-1 H-3 M-5,-3 V1"/><circle cx="5" cy="-1" r="1.4" fill="currentColor" stroke="none"/><circle cx="8" cy="2" r="1.4" fill="currentColor" stroke="none"/></g><g transform="translate(239.6,134.7) rotate(296) scale(0.85)"><rect x="-11" y="-11" width="22" height="22" rx="3"/><rect x="-5" y="-5" width="10" height="10" rx="1.5"/></g><g transform="translate(275.3,135.8) rotate(318) scale(1.22)"><path d="M0,-13 C6,-7 6,2 4,7 H-4 C-6,2 -6,-7 0,-13 Z M-4,7 L-8,12 L-3,9 M4,7 L8,12 L3,9 M0,11 V14"/><circle cy="-3" r="2"/></g><g transform="translate(1.5,130.7) rotate(169) scale(1.19)"><circle r="5"/><circle r="9"/><circle r="13"/></g><g transform="translate(341.5,130.7) rotate(169) scale(1.19)"><circle r="5"/><circle r="9"/><circle r="13"/></g><g transform="translate(60.6,122.5) rotate(298) scale(0.83)"><path d="M0,-12 L11,8 H-11 Z"/><path d="M-15,3 H-4 M2,1 L15,-3 M2,5 L15,7"/></g><g transform="translate(-14.3,188.7) rotate(159) scale(0.82)"><path d="M-12,-7 V7 M12,-7 V7 M-12,-7 H-9 M-12,7 H-9 M12,-7 H9 M12,7 H9"/><circle cx="-5" r="1.6" fill="currentColor" stroke="none"/><circle cx="0" r="1.6" fill="currentColor" stroke="none"/><circle cx="5" r="1.6" fill="currentColor" stroke="none"/></g><g transform="translate(325.7,188.7) rotate(159) scale(0.82)"><path d="M-12,-7 V7 M12,-7 V7 M-12,-7 H-9 M-12,7 H-9 M12,-7 H9 M12,7 H9"/><circle cx="-5" r="1.6" fill="currentColor" stroke="none"/><circle cx="0" r="1.6" fill="currentColor" stroke="none"/><circle cx="5" r="1.6" fill="currentColor" stroke="none"/></g><g transform="translate(15.7,187.5) rotate(121) scale(0.99)"><path d="M-22,0 q4,-7 8,0 t8,0 t8,0 t8,0"/></g><g transform="translate(355.7,187.5) rotate(121) scale(0.99)"><path d="M-22,0 q4,-7 8,0 t8,0 t8,0 t8,0"/></g><g transform="translate(21.0,194.0) rotate(316) scale(0.88)"><circle r="5"/><circle r="9"/><circle r="13"/></g><g transform="translate(361.0,194.0) rotate(316) scale(0.88)"><circle r="5"/><circle r="9"/><circle r="13"/></g><g transform="translate(75.8,170.5) rotate(28) scale(1.06)"><g><circle r="3.2"/><circle cx="0" cy="-8" r="3.4"/><circle cx="8" cy="0" r="3.4"/><circle cx="0" cy="8" r="3.4"/><circle cx="-8" cy="0" r="3.4"/></g></g><g transform="translate(105.8,172.3) rotate(256) scale(0.89)"><path d="M-22,0 q4,-7 8,0 t8,0 t8,0 t8,0"/></g><g transform="translate(128.6,168.4) rotate(31) scale(0.78)"><path d="M0,-13 V13 M-11,-6.5 L11,6.5 M-11,6.5 L11,-6.5 M0,-9 L-3,-12 M0,-9 L3,-12 M0,9 L-3,12 M0,9 L3,12"/></g><g transform="translate(181.1,171.6) rotate(339) scale(1.20)"><circle cx="-9" cy="-7" r="2.6"/><circle cx="9" cy="-4" r="2.6"/><circle cx="0" cy="10" r="2.6"/><path d="M-7,-6 L7,-4 M8,-2 L1,8 M-1,8 L-8,-5"/></g><g transform="translate(246.7,193.6) rotate(244) scale(0.93)"><path d="M-3,9 a4,3 0 1 0 0.1,0 Z M1,7 V-11 L9,-13 V-7"/></g><g transform="translate(288.7,171.6) rotate(8) scale(1.12)"><rect x="-13" y="-6" width="26" height="13" rx="6.5"/><path d="M-7,-1 H-3 M-5,-3 V1"/><circle cx="5" cy="-1" r="1.4" fill="currentColor" stroke="none"/><circle cx="8" cy="2" r="1.4" fill="currentColor" stroke="none"/></g><g transform="translate(5.1,189.2) rotate(17) scale(0.85)"><circle r="10"/><circle r="2.2" fill="currentColor" stroke="none"/><path d="M-14,-6 A16,16 0 0 1 14,6"/></g><g transform="translate(345.1,189.2) rotate(17) scale(0.85)"><circle r="10"/><circle r="2.2" fill="currentColor" stroke="none"/><path d="M-14,-6 A16,16 0 0 1 14,6"/></g><g transform="translate(44.9,176.4) rotate(243) scale(1.19)"><path d="M-12,-9 L13,0 L-12,9 L-6,0 Z"/></g><g transform="translate(-21.7,226.0) rotate(95) scale(1.17)"><path d="M0,-12 L11,8 H-11 Z"/><path d="M-15,3 H-4 M2,1 L15,-3 M2,5 L15,7"/></g><g transform="translate(318.3,226.0) rotate(95) scale(1.17)"><path d="M0,-12 L11,8 H-11 Z"/><path d="M-15,3 H-4 M2,1 L15,-3 M2,5 L15,7"/></g><g transform="translate(8.3,221.1) rotate(187) scale(1.07)"><path d="M-22,0 q4,-7 8,0 t8,0 t8,0 t8,0"/></g><g transform="translate(348.3,221.1) rotate(187) scale(1.07)"><path d="M-22,0 q4,-7 8,0 t8,0 t8,0 t8,0"/></g><g transform="translate(39.7,230.0) rotate(224) scale(1.13)"><path d="M-10,6 a5,5 0 0 1 1,-10 a6,6 0 0 1 11,-1 a5,5 0 0 1 1,11 Z"/></g><g transform="translate(90.3,231.4) rotate(86) scale(0.89)"><circle r="10"/><circle r="2.2" fill="currentColor" stroke="none"/><path d="M-14,-6 A16,16 0 0 1 14,6"/></g><g transform="translate(124.7,229.3) rotate(32) scale(1.08)"><rect x="-8" y="-1" width="16" height="13" rx="2.5"/><path d="M-5,-1 V-5 a5,5 0 0 1 10,0 V-1"/></g><g transform="translate(154.7,226.0) rotate(294) scale(0.85)"><path d="M-22,0 q4,-7 8,0 t8,0 t8,0 t8,0"/></g><g transform="translate(171.4,229.9) rotate(346) scale(0.98)"><circle cx="0" cy="6" r="5.5"/><circle cx="-8" cy="-2" r="2.6"/><circle cx="-2.5" cy="-7" r="2.6"/><circle cx="3.5" cy="-7" r="2.6"/><circle cx="9" cy="-2" r="2.6"/></g><g transform="translate(235.0,233.1) rotate(20) scale(0.98)"><path d="M-10,10 C-10,-6 4,-10 10,-10 C10,6 -4,10 -10,10 Z M-6,6 L6,-6"/></g><g transform="translate(291.7,229.9) rotate(295) scale(0.86)"><circle r="5"/><circle r="9"/><circle r="13"/></g><g transform="translate(4.1,222.4) rotate(146) scale(1.03)"><path d="M-3,9 a4,3 0 1 0 0.1,0 Z M1,7 V-11 L9,-13 V-7"/></g><g transform="translate(344.1,222.4) rotate(146) scale(1.03)"><path d="M-3,9 a4,3 0 1 0 0.1,0 Z M1,7 V-11 L9,-13 V-7"/></g><g transform="translate(46.6,232.8) rotate(238) scale(1.09)"><path d="M-10,6 a5,5 0 0 1 1,-10 a6,6 0 0 1 11,-1 a5,5 0 0 1 1,11 Z"/></g><g transform="translate(76.6,228.5) rotate(97) scale(0.76)"><path d="M-22,0 q4,-7 8,0 t8,0 t8,0 t8,0"/></g><g transform="translate(306.3,288.1) rotate(16) scale(0.97)"><circle cx="-7" cy="0" r="5.5"/><circle cx="7" cy="0" r="5.5"/><path d="M-1.5,0 H1.5 M-12.5,-1 L-15,-4 M12.5,-1 L15,-4"/></g><g transform="translate(14.9,289.1) rotate(289) scale(1.12)"><path d="M-11,2 V-1 a11,11 0 0 1 22,0 V2"/><rect x="-13" y="2" width="5" height="9" rx="2"/><rect x="8" y="2" width="5" height="9" rx="2"/></g><g transform="translate(354.9,289.1) rotate(289) scale(1.12)"><path d="M-11,2 V-1 a11,11 0 0 1 22,0 V2"/><rect x="-13" y="2" width="5" height="9" rx="2"/><rect x="8" y="2" width="5" height="9" rx="2"/></g><g transform="translate(44.9,279.1) rotate(275) scale(1.02)"><path d="M-22,0 q4,-7 8,0 t8,0 t8,0 t8,0"/></g><g transform="translate(66.8,280.0) rotate(256) scale(1.16)"><path d="M-8,7 a8,10 0 0 1 16,0 Z M0,-5 V-9 M-3,9 a3,3 0 0 0 6,0"/></g><g transform="translate(130.2,284.0) rotate(325) scale(1.13)"><circle cx="-9" cy="-7" r="2.6"/><circle cx="9" cy="-4" r="2.6"/><circle cx="0" cy="10" r="2.6"/><path d="M-7,-6 L7,-4 M8,-2 L1,8 M-1,8 L-8,-5"/></g><g transform="translate(193.8,274.3) rotate(178) scale(1.16)"><circle cx="0" cy="6" r="5.5"/><circle cx="-8" cy="-2" r="2.6"/><circle cx="-2.5" cy="-7" r="2.6"/><circle cx="3.5" cy="-7" r="2.6"/><circle cx="9" cy="-2" r="2.6"/></g><g transform="translate(229.6,292.5) rotate(35) scale(0.86)"><path d="M0,-13 V13 M-11,-6.5 L11,6.5 M-11,6.5 L11,-6.5 M0,-9 L-3,-12 M0,-9 L3,-12 M0,9 L-3,12 M0,9 L3,12"/></g><g transform="translate(293.0,293.0) rotate(188) scale(1.01)"><circle r="10"/><circle r="2.2" fill="currentColor" stroke="none"/><path d="M-14,-6 A16,16 0 0 1 14,6"/></g><g transform="translate(-0.1,287.1) rotate(33) scale(0.94)"><path d="M-8,7 a8,10 0 0 1 16,0 Z M0,-5 V-9 M-3,9 a3,3 0 0 0 6,0"/></g><g transform="translate(339.9,287.1) rotate(33) scale(0.94)"><path d="M-8,7 a8,10 0 0 1 16,0 Z M0,-5 V-9 M-3,9 a3,3 0 0 0 6,0"/></g><g transform="translate(40.2,295.4) rotate(345) scale(0.78)"><path d="M-12,-9 L13,0 L-12,9 L-6,0 Z"/></g><g transform="translate(-23.7,0.9) rotate(48) scale(1.02)"><path d="M-3,9 a4,3 0 1 0 0.1,0 Z M1,7 V-11 L9,-13 V-7"/></g><g transform="translate(-23.7,340.9) rotate(48) scale(1.02)"><path d="M-3,9 a4,3 0 1 0 0.1,0 Z M1,7 V-11 L9,-13 V-7"/></g><g transform="translate(316.3,0.9) rotate(48) scale(1.02)"><path d="M-3,9 a4,3 0 1 0 0.1,0 Z M1,7 V-11 L9,-13 V-7"/></g><g transform="translate(316.3,340.9) rotate(48) scale(1.02)"><path d="M-3,9 a4,3 0 1 0 0.1,0 Z M1,7 V-11 L9,-13 V-7"/></g><g transform="translate(33.2,-3.9) rotate(356) scale(0.82)"><path d="M0,-13 C6,-7 6,2 4,7 H-4 C-6,2 -6,-7 0,-13 Z M-4,7 L-8,12 L-3,9 M4,7 L8,12 L3,9 M0,11 V14"/><circle cy="-3" r="2"/></g><g transform="translate(33.2,336.1) rotate(356) scale(0.82)"><path d="M0,-13 C6,-7 6,2 4,7 H-4 C-6,2 -6,-7 0,-13 Z M-4,7 L-8,12 L-3,9 M4,7 L8,12 L3,9 M0,11 V14"/><circle cy="-3" r="2"/></g><g transform="translate(64.9,-1.2) rotate(348) scale(1.02)"><path d="M0,-13 V13 M-11,-6.5 L11,6.5 M-11,6.5 L11,-6.5 M0,-9 L-3,-12 M0,-9 L3,-12 M0,9 L-3,12 M0,9 L3,12"/></g><g transform="translate(64.9,338.8) rotate(348) scale(1.02)"><path d="M0,-13 V13 M-11,-6.5 L11,6.5 M-11,6.5 L11,-6.5 M0,-9 L-3,-12 M0,-9 L3,-12 M0,9 L-3,12 M0,9 L3,12"/></g><g transform="translate(121.4,6.3) rotate(84) scale(1.06)"><path d="M-12,-9 L13,0 L-12,9 L-6,0 Z"/></g><g transform="translate(121.4,346.3) rotate(84) scale(1.06)"><path d="M-12,-9 L13,0 L-12,9 L-6,0 Z"/></g><g transform="translate(184.9,0.2) rotate(4) scale(0.84)"><path d="M-6,-11 V11 M-6,1 L7,-11 M-6,1 L7,11"/></g><g transform="translate(184.9,340.2) rotate(4) scale(0.84)"><path d="M-6,-11 V11 M-6,1 L7,-11 M-6,1 L7,11"/></g><g transform="translate(224.5,1.3) rotate(87) scale(0.74)"><path d="M0,-13 L3.8,-4 L13,-3.2 L6,3 L8,12 L0,7.2 L-8,12 L-6,3 L-13,-3.2 L-3.8,-4 Z"/></g><g transform="translate(224.5,341.3) rotate(87) scale(0.74)"><path d="M0,-13 L3.8,-4 L13,-3.2 L6,3 L8,12 L0,7.2 L-8,12 L-6,3 L-13,-3.2 L-3.8,-4 Z"/></g><g transform="translate(293.6,2.8) rotate(294) scale(1.15)"><path d="M-9,-5 L-7,-13 L-2,-7 M9,-5 L7,-13 L2,-7 M-9,-5 a9,8 0 0 0 18,0"/><path d="M-2,2 H-7 M2,2 H7"/><circle cx="-4" cy="-2" r="1.1" fill="currentColor" stroke="none"/><circle cx="4" cy="-2" r="1.1" fill="currentColor" stroke="none"/></g><g transform="translate(293.6,342.8) rotate(294) scale(1.15)"><path d="M-9,-5 L-7,-13 L-2,-7 M9,-5 L7,-13 L2,-7 M-9,-5 a9,8 0 0 0 18,0"/><path d="M-2,2 H-7 M2,2 H7"/><circle cx="-4" cy="-2" r="1.1" fill="currentColor" stroke="none"/><circle cx="4" cy="-2" r="1.1" fill="currentColor" stroke="none"/></g><g transform="translate(-6.0,-13.2) rotate(23) scale(1.03)"><path d="M-13,-2 q6,-7 13,0 q7,-7 13,0 M0,3 q0,7 -4,9 M0,3 q0,7 4,9"/></g><g transform="translate(-6.0,326.8) rotate(23) scale(1.03)"><path d="M-13,-2 q6,-7 13,0 q7,-7 13,0 M0,3 q0,7 -4,9 M0,3 q0,7 4,9"/></g><g transform="translate(334.0,-13.2) rotate(23) scale(1.03)"><path d="M-13,-2 q6,-7 13,0 q7,-7 13,0 M0,3 q0,7 -4,9 M0,3 q0,7 4,9"/></g><g transform="translate(334.0,326.8) rotate(23) scale(1.03)"><path d="M-13,-2 q6,-7 13,0 q7,-7 13,0 M0,3 q0,7 -4,9 M0,3 q0,7 4,9"/></g><g transform="translate(37.1,7.8) rotate(108) scale(0.89)"><g><circle r="3.2"/><circle cx="0" cy="-8" r="3.4"/><circle cx="8" cy="0" r="3.4"/><circle cx="0" cy="8" r="3.4"/><circle cx="-8" cy="0" r="3.4"/></g></g><g transform="translate(37.1,347.8) rotate(108) scale(0.89)"><g><circle r="3.2"/><circle cx="0" cy="-8" r="3.4"/><circle cx="8" cy="0" r="3.4"/><circle cx="0" cy="8" r="3.4"/><circle cx="-8" cy="0" r="3.4"/></g></g><g transform="translate(-21.3,58.4) rotate(190) scale(1.09)"><circle cx="0" cy="6" r="5.5"/><circle cx="-8" cy="-2" r="2.6"/><circle cx="-2.5" cy="-7" r="2.6"/><circle cx="3.5" cy="-7" r="2.6"/><circle cx="9" cy="-2" r="2.6"/></g><g transform="translate(318.7,58.4) rotate(190) scale(1.09)"><circle cx="0" cy="6" r="5.5"/><circle cx="-8" cy="-2" r="2.6"/><circle cx="-2.5" cy="-7" r="2.6"/><circle cx="3.5" cy="-7" r="2.6"/><circle cx="9" cy="-2" r="2.6"/></g><g transform="translate(26.5,62.7) rotate(289) scale(0.99)"><path d="M-6,3 a6,7 0 1 1 12,0 q-2,3 -2,5 H-4 q0,-2 -2,-5 Z M-3,11 H3 M-2.5,13.5 H2.5"/></g><g transform="translate(74.4,56.7) rotate(307) scale(1.20)"><rect x="-13" y="-6" width="26" height="13" rx="6.5"/><path d="M-7,-1 H-3 M-5,-3 V1"/><circle cx="5" cy="-1" r="1.4" fill="currentColor" stroke="none"/><circle cx="8" cy="2" r="1.4" fill="currentColor" stroke="none"/></g><g transform="translate(124.9,39.0) rotate(76) scale(0.82)"><circle cx="-7" r="5"/><path d="M-2,0 H13 M9,0 V5 M13,0 V4"/></g><g transform="translate(188.8,39.9) rotate(329) scale(0.83)"><path d="M-8,7 a8,10 0 0 1 16,0 Z M0,-5 V-9 M-3,9 a3,3 0 0 0 6,0"/></g><g transform="translate(224.3,62.3) rotate(11) scale(1.08)"><circle r="12"/><circle cx="-4.5" cy="-3" r="1.4" fill="currentColor" stroke="none"/><circle cx="4.5" cy="-3" r="1.4" fill="currentColor" stroke="none"/><path d="M-6,4 a7,5 0 0 0 12,0"/></g><g transform="translate(273.5,50.4) rotate(33) scale(1.21)"><path d="M0,-11 L9.5,-5.5 V5.5 L0,11 L-9.5,5.5 V-5.5 Z M0,-11 V-17 M9.5,-5.5 L15,-8 M9.5,5.5 L15,8 M0,11 V17 M-9.5,5.5 L-15,8 M-9.5,-5.5 L-15,-8"/></g><g transform="translate(3.0,54.2) rotate(297) scale(0.86)"><path d="M-10,10 C-10,-6 4,-10 10,-10 C10,6 -4,10 -10,10 Z M-6,6 L6,-6"/></g><g transform="translate(343.0,54.2) rotate(297) scale(0.86)"><path d="M-10,10 C-10,-6 4,-10 10,-10 C10,6 -4,10 -10,10 Z M-6,6 L6,-6"/></g><g transform="translate(60.4,59.6) rotate(349) scale(1.05)"><path d="M-13,-2 q6,-7 13,0 q7,-7 13,0 M0,3 q0,7 -4,9 M0,3 q0,7 4,9"/></g>
</g></svg>